<?xml version="1.0" standalone="no"?>
<!DOCTYPE svg PUBLIC "-//W3C//DTD SVG 20010904//EN"
 "http://www.w3.org/TR/2001/REC-SVG-20010904/DTD/svg10.dtd">
<svg version="1.0" xmlns="http://www.w3.org/2000/svg"
 width="300.000000pt" height="300.000000pt" viewBox="0 0 300.000000 300.000000"
 preserveAspectRatio="xMidYMid meet">
<metadata>
Created by potrace 1.10, written by Peter Selinger 2001-2011
</metadata>
<g transform="translate(0.000000,300.000000) scale(0.100000,-0.100000)"
fill="#000000" stroke="none">
<path d="M634 2396 l-34 -34 0 -847 0 -847 34 -34 34 -34 832 0 832 0 34 34
34 34 0 847 0 847 -34 34 -34 34 -832 0 -832 0 -34 -34z m1698 -18 c22 -15 26
-25 30 -90 2 -40 4 -415 3 -833 -1 -566 -4 -766 -13 -782 -7 -12 -29 -27 -50
-33 -24 -6 -308 -10 -815 -10 -828 0 -823 0 -841 47 -4 9 -7 388 -7 841 0 920
-4 868 68 874 21 2 389 3 819 3 707 -1 783 -2 806 -17z"/>
<path d="M1177 2071 c-33 -11 -37 -35 -36 -258 0 -125 -4 -230 -10 -240 -5
-10 -6 -25 -1 -33 4 -8 11 -57 14 -109 3 -61 10 -97 18 -103 20 -12 82 -10 96
4 9 9 15 9 24 0 7 -7 28 -12 48 -12 55 0 60 11 60 134 0 61 4 117 9 124 9 15
47 -27 111 -123 55 -81 95 -125 114 -125 7 0 7 3 0 8 -11 6 -87 115 -202 286
l-47 69 -3 -176 -2 -177 -45 0 c-25 0 -45 5 -45 10 0 6 16 10 35 10 l35 0 2
198 3 197 71 -100 c39 -55 99 -142 134 -192 77 -113 93 -129 83 -83 -4 23 -3
31 5 26 6 -4 9 -12 6 -19 -3 -8 7 -25 20 -40 22 -24 28 -26 46 -15 16 10 24
10 40 0 28 -17 54 -15 72 6 17 19 22 152 6 152 -6 0 -7 7 -2 18 4 9 11 85 16
167 4 83 8 159 8 170 3 48 -13 201 -23 213 -5 6 -27 12 -47 12 -29 0 -43 -6
-58 -25 -11 -14 -24 -25 -30 -25 -5 0 -17 11 -26 25 -19 28 -57 33 -76 10 -8
-9 -10 -28 -6 -52 7 -43 8 -184 1 -191 -8 -8 -37 21 -69 69 -17 25 -51 76 -76
113 -25 37 -54 69 -65 72 -26 6 -191 10 -208 5z m329 -205 l124 -178 0 156 c0
104 -4 156 -11 156 -20 0 -5 45 17 48 24 3 41 -25 24 -42 -6 -6 -10 -77 -10
-183 0 -100 -4 -173 -9 -173 -5 0 -69 86 -142 190 l-131 190 -89 0 -89 0 0
-228 c0 -164 3 -231 12 -240 9 -9 9 -15 0 -24 -7 -7 -12 -44 -12 -95 0 -76 2
-83 20 -83 18 0 20 7 20 63 0 58 3 66 30 90 33 30 36 38 18 67 -10 15 -10 22
0 32 8 8 12 50 12 130 0 72 4 118 10 118 6 0 10 -46 10 -118 0 -72 4 -122 11
-129 8 -8 8 -17 0 -31 -15 -28 -14 -125 1 -140 16 -16 -13 -47 -36 -39 -18 7
-22 42 -6 52 6 3 10 18 10 33 l-1 27 -19 -24 c-15 -18 -20 -38 -20 -87 l0 -64
-46 0 -46 0 3 88 c1 48 -2 95 -6 106 -5 11 -3 26 3 37 8 12 11 93 11 241 0
123 1 227 1 231 0 4 48 6 106 5 l106 -3 124 -179z m324 96 c0 -55 4 -92 12
-100 9 -9 9 -15 0 -24 -8 -8 -12 -59 -12 -165 0 -95 -4 -153 -10 -153 -6 0
-10 55 -10 145 0 98 -4 152 -12 165 -10 16 -10 24 0 40 6 11 12 51 12 90 0 63
-2 70 -20 70 -18 0 -20 -7 -20 -68 0 -63 -2 -71 -30 -97 -29 -28 -30 -31 -30
-123 0 -61 -4 -98 -12 -106 -11 -10 -12 15 -10 127 3 97 0 147 -9 163 -22 42
12 74 41 39 10 -12 10 -19 2 -27 -7 -7 -12 -28 -12 -47 l1 -36 19 24 c16 18
20 38 20 97 l0 74 40 0 40 0 0 -88z m-555 28 c3 -5 23 -10 43 -10 35 -1 40 -5
97 -90 33 -49 68 -91 78 -94 26 -7 18 -40 -11 -44 -13 -2 -22 2 -23 10 -1 7
-2 18 -3 23 0 6 -26 47 -56 92 -52 77 -57 83 -90 83 -20 0 -41 -5 -48 -12 -16
-16 -47 13 -39 36 7 18 42 22 52 6z m162 -242 c65 -95 120 -176 121 -180 7
-17 -25 -7 -34 10 -5 10 -56 87 -113 170 -93 136 -107 152 -133 152 l-28 0 0
-93 c0 -59 4 -97 12 -105 9 -9 9 -15 0 -24 -7 -7 -12 -38 -12 -71 0 -41 -4
-57 -12 -55 -8 3 -11 21 -9 50 1 26 -3 55 -11 67 -10 17 -10 25 0 41 7 12 12
56 12 115 l0 95 44 0 45 0 118 -172z m346 39 c3 -8 1 -20 -4 -28 -5 -8 -9 -44
-9 -81 0 -39 -4 -68 -10 -68 -6 0 -10 29 -10 68 0 37 -5 73 -11 79 -7 7 -9 19
-6 27 8 19 43 21 50 3z m-215 -106 c2 -13 17 -42 33 -64 30 -41 35 -57 20 -57
-5 0 -23 23 -41 50 -18 28 -38 50 -45 50 -18 0 -28 17 -21 36 9 24 50 13 54
-15z m152 -83 c0 -19 -18 -43 -25 -36 -9 9 4 48 16 48 5 0 9 -6 9 -12z m70
-38 c0 -22 -4 -40 -10 -40 -5 0 -7 7 -3 16 5 14 1 15 -25 9 -38 -8 -45 11 -7
21 14 3 25 12 25 20 0 8 5 14 10 14 6 0 10 -18 10 -40z m-186 -16 c9 -3 16
-10 16 -16 0 -14 -43 -5 -48 10 -4 13 7 15 32 6z m144 -34 c94 -36 112 -53 67
-64 -31 -8 -31 -17 0 -46 l25 -24 -22 -23 -22 -23 -31 30 -32 31 -11 -26 c-6
-14 -15 -25 -20 -25 -5 0 -21 45 -35 99 -30 110 -30 114 -19 109 4 -1 49 -19
100 -38z"/>
<path d="M1670 1512 c1 -4 9 -36 18 -71 18 -62 19 -62 33 -40 l16 23 30 -34
c38 -42 54 -24 17 20 -15 17 -25 32 -23 34 2 2 12 7 22 13 15 8 7 14 -48 35
-36 15 -65 23 -65 20z"/>
<path d="M762 1250 c-18 -17 -22 -32 -22 -78 0 -82 40 -128 78 -90 9 9 17 9
35 -1 13 -7 33 -12 43 -11 10 1 37 2 58 1 l39 -1 -27 -25 c-32 -30 -34 -69 -3
-89 16 -11 40 -13 92 -9 39 3 95 5 125 4 68 -2 308 -4 335 -3 11 1 131 0 266
-1 269 -2 279 0 279 54 0 32 -27 53 -72 58 -8 1 -6 7 5 18 14 15 21 15 37 5
24 -15 84 -16 111 -1 14 7 29 7 54 -3 32 -11 37 -10 56 8 l20 21 -21 54 c-36
91 -78 124 -114 90 -21 -20 -22 -20 -51 -1 -27 18 -31 18 -47 3 -11 -10 -23
-13 -35 -7 -10 4 -36 9 -58 10 -22 1 -61 5 -87 9 -26 4 -55 4 -65 0 -29 -12
-104 -15 -122 -6 -10 6 -25 4 -43 -7 -26 -15 -30 -15 -59 2 -30 18 -32 18 -57
-1 -27 -19 -28 -19 -57 -1 -23 14 -40 17 -70 13 -22 -4 -73 -6 -112 -5 -51 1
-73 -2 -73 -10 0 -8 -8 -10 -22 -5 -29 9 -92 17 -143 16 -141 -1 -170 -3 -181
-12 -10 -8 -20 -6 -36 5 -28 20 -30 20 -56 -4z m69 -56 l34 -46 3 46 c2 32 7
46 18 46 11 0 14 -16 14 -75 0 -41 -4 -75 -9 -75 -5 0 -28 23 -50 51 l-41 52
0 -53 c0 -37 -4 -50 -12 -47 -9 2 -13 26 -13 68 -1 97 5 101 56 33z m129 -30
c0 -56 -3 -75 -12 -72 -9 3 -14 30 -16 76 -2 60 0 72 13 72 12 0 15 -14 15
-76z m120 66 c19 -12 7 -23 -30 -27 -38 -4 -38 -16 0 -26 42 -11 56 -41 30
-67 -22 -22 -37 -24 -75 -10 -36 14 -22 30 19 23 50 -8 54 14 7 33 -32 12 -41
22 -41 40 0 36 54 57 90 34z m70 -20 c0 -27 3 -30 33 -30 32 0 33 2 29 30 -3
23 0 30 12 30 13 0 16 -13 16 -76 0 -56 -3 -75 -12 -72 -7 3 -14 19 -16 36 -3
28 -7 32 -32 32 -25 0 -29 -4 -32 -32 -2 -17 -9 -33 -15 -36 -10 -3 -13 16
-13 72 0 61 3 76 15 76 10 0 15 -10 15 -30z m150 -46 c0 -56 -3 -75 -12 -72
-8 3 -14 27 -16 63 -3 62 1 85 18 85 6 0 10 -30 10 -76z m141 65 c26 -13 14
-31 -16 -23 -53 13 -87 -24 -58 -65 8 -12 25 -21 39 -21 19 0 24 5 24 25 0 16
6 25 16 25 11 0 14 -8 12 -32 -2 -27 -9 -34 -36 -42 -73 -21 -126 76 -66 123
30 23 55 26 85 10z m148 -61 c32 -73 33 -100 1 -60 -11 14 -29 22 -48 22 -20
0 -35 -8 -45 -22 -25 -38 -29 -14 -6 38 11 27 25 59 30 72 15 39 35 24 68 -50z
m101 27 c19 -25 36 -45 39 -45 4 0 5 20 3 45 -3 36 -1 45 12 45 13 0 16 -12
16 -69 0 -39 -4 -72 -9 -75 -5 -4 -24 13 -42 36 -51 67 -51 67 -48 18 2 -25
-1 -46 -7 -48 -5 -1 -11 27 -14 64 -7 92 0 96 50 29z m222 15 c44 -54 8 -110
-72 -110 l-50 0 0 71 0 72 52 -5 c38 -4 57 -12 70 -28z m68 0 c0 -28 3 -30 35
-30 32 0 35 2 35 30 0 20 5 30 15 30 12 0 15 -14 15 -70 0 -56 -3 -70 -15 -70
-10 0 -15 10 -15 30 0 28 -3 30 -35 30 -33 0 -35 -2 -35 -36 0 -24 -4 -34 -12
-32 -9 3 -14 30 -16 76 -2 60 0 72 13 72 10 0 15 -10 15 -30z m232 -43 c30
-65 31 -105 1 -59 -21 30 -79 31 -88 2 -3 -11 -13 -20 -22 -20 -8 0 -13 6 -10
13 37 91 62 137 74 135 7 -2 28 -33 45 -71z m-1004 -89 c7 -7 12 -14 12 -17 0
-8 -52 -11 -70 -5 -12 5 -12 8 4 20 24 17 38 18 54 2z m367 0 c29 -13 34 -33
6 -25 -11 2 -33 -4 -50 -14 -18 -11 -38 -19 -46 -19 -8 0 -15 -4 -15 -10 0 -5
7 -7 15 -4 8 4 15 1 15 -4 0 -6 -8 -13 -17 -15 -14 -4 -12 -5 5 -6 30 -1 28
-21 -3 -21 -22 0 -25 4 -25 35 0 31 3 35 26 35 20 0 25 4 20 16 -7 19 10 44
30 44 7 0 25 -5 39 -12z m152 -8 l26 -20 -67 0 c-41 0 -66 4 -66 11 0 6 6 9
14 6 8 -3 22 1 33 8 24 19 30 18 60 -5z m-379 4 c44 -12 20 -24 -49 -24 -47 0
-68 4 -64 11 4 6 19 7 35 4 16 -3 31 -2 35 4 7 13 12 13 43 5z m597 -3 c3 -5
1 -13 -5 -16 -15 -9 -43 3 -35 15 8 13 32 13 40 1z m-935 -51 c0 -5 -8 -7 -17
-4 -16 5 -16 4 1 -10 20 -17 15 -46 -8 -46 -25 0 -29 20 -4 21 l23 0 -22 9
c-31 13 -30 40 2 40 14 0 25 -4 25 -10z m77 -6 c8 -22 -10 -49 -32 -49 -22 0
-40 27 -32 49 8 21 56 21 64 0z m143 1 c0 -8 5 -15 10 -15 6 0 10 7 10 15 0
22 15 18 28 -7 8 -18 11 -19 11 -6 1 9 6 20 12 24 9 5 10 -1 5 -22 -11 -43
-24 -51 -35 -23 l-10 24 -7 -22 c-9 -32 -21 -29 -29 7 -4 17 -13 30 -21 30 -9
0 -14 -11 -14 -30 0 -16 -4 -30 -10 -30 -5 0 -10 14 -10 30 0 25 -4 30 -25 30
-28 0 -35 -19 -7 -21 16 -1 16 -2 0 -6 -10 -2 -18 -11 -18 -19 0 -8 -4 -14
-10 -14 -5 0 -10 16 -10 35 l0 35 65 0 c51 0 65 -3 65 -15z m139 -16 c14 -41
14 -41 -9 -27 -17 11 -22 10 -30 -2 -17 -27 -22 -2 -5 29 20 39 30 39 44 0z
m74 16 c4 -8 2 -17 -4 -21 -6 -4 -6 -11 2 -20 7 -9 8 -14 1 -14 -6 0 -14 5
-17 10 -5 8 -11 7 -21 -1 -12 -9 -14 -5 -14 25 0 31 3 36 24 36 13 0 26 -7 29
-15z m140 8 c-13 -2 -23 -9 -23 -15 0 -5 7 -8 15 -4 8 3 15 1 15 -4 0 -5 -8
-11 -17 -13 -14 -4 -12 -5 5 -6 12 0 22 -6 22 -12 0 -6 -12 -9 -27 -7 -23 2
-29 8 -31 36 -3 30 -2 32 30 31 23 -1 26 -3 11 -6z m67 -10 c0 10 5 17 10 17
6 0 10 -16 10 -35 0 -40 -9 -44 -29 -12 l-15 22 -7 -25 c-6 -21 -7 -19 -8 14
-1 38 -1 39 19 21 18 -16 20 -16 20 -2z m90 9 c0 -5 -10 -8 -21 -8 -12 1 -24
-5 -26 -11 -7 -19 27 -29 39 -12 7 11 8 9 6 -6 -4 -24 -37 -27 -51 -4 -15 24
-1 49 28 49 14 0 25 -4 25 -8z m30 -27 c0 -19 -4 -35 -10 -35 -5 0 -10 16 -10
35 0 19 5 35 10 35 6 0 10 -16 10 -35z m44 14 l14 -21 5 23 c3 15 5 8 5 -16
l1 -40 -19 24 c-20 23 -20 23 -20 2 0 -12 -4 -21 -10 -21 -5 0 -10 16 -10 35
0 40 12 45 34 14z m78 14 c-12 -2 -20 -9 -16 -14 3 -5 10 -7 15 -4 5 4 9 2 9
-4 0 -5 -8 -12 -17 -14 -14 -4 -12 -5 5 -6 30 -1 28 -21 -3 -21 -22 0 -25 4
-25 35 0 32 2 35 28 34 23 -2 24 -2 4 -6z m66 0 c-10 -2 -18 -9 -18 -14 0 -5
8 -9 18 -10 14 0 14 -2 -3 -9 -17 -7 -17 -9 -2 -9 27 -1 20 -21 -8 -21 -22 0
-25 4 -25 35 0 32 3 35 28 34 16 -1 20 -3 10 -6z m79 -30 c1 -33 -10 -44 -21
-20 -5 10 -7 10 -12 0 -11 -25 -24 -13 -24 23 0 33 2 35 28 32 23 -3 27 -8 29
-35z"/>
<path d="M1530 1181 c-14 -27 -9 -34 18 -29 19 3 19 5 8 27 l-13 24 -13 -22z"/>
<path d="M1820 1165 c0 -43 1 -45 28 -45 33 0 52 16 52 45 0 29 -19 45 -52 45
-27 0 -28 -2 -28 -45z"/>
<path d="M2152 1175 c-11 -23 -9 -25 12 -25 19 0 23 4 19 20 -8 31 -19 32 -31
5z"/>
<path d="M1036 1005 c-6 -17 16 -31 33 -21 13 9 2 36 -14 36 -7 0 -16 -7 -19
-15z"/>
<path d="M1377 523 c-13 -12 -7 -24 16 -33 17 -7 18 -9 5 -9 -10 -1 -18 -6
-18 -12 0 -14 21 -6 33 13 19 29 -13 65 -36 41z"/>
<path d="M1430 520 c0 -5 7 -7 15 -4 8 4 15 2 15 -4 0 -5 -7 -15 -15 -22 -21
-17 -19 -30 5 -30 11 0 20 5 20 10 0 6 -5 10 -12 10 -9 0 -9 3 0 12 18 18 14
38 -8 38 -11 0 -20 -4 -20 -10z"/>
<path d="M1514 515 c-5 -11 -10 -13 -19 -5 -9 7 -12 2 -12 -20 0 -22 3 -27 13
-19 6 5 14 6 16 2 3 -4 3 -2 2 5 -4 16 6 42 16 42 5 0 11 -15 13 -32 4 -32 4
-32 5 5 2 27 -2 37 -13 37 -9 0 -18 -7 -21 -15z"/>
<path d="M1567 524 c-13 -13 -7 -25 16 -34 l22 -9 -24 0 c-19 -1 -22 -4 -13
-13 16 -16 44 9 40 36 -3 21 -28 33 -41 20z"/>
<path d="M1633 523 c21 -6 22 -17 2 -33 -21 -17 -19 -30 5 -30 11 0 20 5 20
10 0 6 -5 10 -11 10 -8 0 -8 4 1 15 14 17 5 35 -18 34 -15 -1 -15 -2 1 -6z"/>
</g>
</svg>
